<svg width="24" height="24" viewBox="0 0 24 24" fill="none" xmlns="http://www.w3.org/2000/svg">
<path fill-rule="evenodd" clip-rule="evenodd" d="M12 3.60002C7.3608 3.60002 3.59999 7.36083 3.59999 12C3.59999 16.6392 7.3608 20.4 12 20.4H17V21.6H12C6.69806 21.6 2.39999 17.302 2.39999 12C2.39999 6.69809 6.69806 2.40002 12 2.40002C17.3019 2.40002 21.6 6.69809 21.6 12V13.5C21.6 15.2121 20.2121 16.6 18.5 16.6C17.2409 16.6 16.1572 15.8494 15.6718 14.7713C14.8321 15.8822 13.4999 16.6 12 16.6C9.45948 16.6 7.39999 14.5405 7.39999 12C7.39999 9.45951 9.45948 7.40002 12 7.40002C14.5405 7.40002 16.6 9.45951 16.6 12V13.5C16.6 14.5494 17.4507 15.4 18.5 15.4C19.5493 15.4 20.4 14.5494 20.4 13.5V12C20.4 7.36083 16.6392 3.60002 12 3.60002ZM15.4 12C15.4 10.1223 13.8778 8.60002 12 8.60002C10.1222 8.60002 8.59999 10.1223 8.59999 12C8.59999 13.8778 10.1222 15.4 12 15.4C13.8778 15.4 15.4 13.8778 15.4 12Z" fill="black"/>
</svg>
