<svg width="24" height="24" viewBox="0 0 24 24" fill="none" xmlns="http://www.w3.org/2000/svg">
<g clip-path="url(#clip0_322_8)">
<path d="M22 11.5V6C22 5.44772 21.5523 5 21 5H3C2.44772 5 2 5.44772 2 6V18C2 18.5523 2.44772 19 3 19H12" stroke="black" stroke-width="1.2"/>
<path d="M2 6L12 12L22 6" stroke="black" stroke-width="1.2"/>
<path d="M20.6667 14.7938C20.6667 13.8514 19.6966 13.0875 18.5 13.0875M18.5 13.0875C17.3034 13.0875 16.3333 13.8514 16.3333 14.7938C16.3333 15.7361 17.3683 16.2454 18.5 16.5C19.5833 16.7438 20.6667 17.2639 20.6667 18.2063C20.6667 19.1486 19.6966 19.9125 18.5 19.9125M18.5 13.0875V11.625M18.5 19.9125C17.3034 19.9125 16.3333 19.1486 16.3333 18.2063M18.5 19.9125V21.375" stroke="black" stroke-width="1.2"/>
</g>
<defs>
<clipPath id="clip0_322_8">
<rect width="24" height="24" fill="white"/>
</clipPath>
</defs>
</svg>
