<?xml version="1.0" encoding="UTF-8"?><svg id="Layer_2" xmlns="http://www.w3.org/2000/svg" viewBox="0 0 21.2 16.98"><defs><style>.cls-1{fill:none;stroke:#fff;stroke-width:1.2px;}</style></defs><g id="Layer_1-2"><g><path class="cls-1" d="M20.6,7.1V1.6c0-.55-.45-1-1-1H1.6c-.55,0-1,.45-1,1V13.6c0,.55,.45,1,1,1H10.6"/><path class="cls-1" d="M.6,1.6L10.6,7.6,20.6,1.6"/><path class="cls-1" d="M19.27,10.39c0-.94-.97-1.71-2.17-1.71m0,0c-1.2,0-2.17,.76-2.17,1.71s1.03,1.45,2.17,1.71c1.08,.24,2.17,.76,2.17,1.71s-.97,1.71-2.17,1.71m0-6.83v-1.46m0,8.29c-1.2,0-2.17-.76-2.17-1.71m2.17,1.71v1.46"/></g></g></svg>