<svg width="24" height="24" viewBox="0 0 24 24" fill="none" xmlns="http://www.w3.org/2000/svg">
<path fill-rule="evenodd" clip-rule="evenodd" d="M16 2.4C16.8837 2.4 17.6 3.11635 17.6 4L17.6 20C17.6 20.8837 16.8837 21.6 16 21.6L8.00001 21.6C7.11635 21.6 6.40001 20.8837 6.40001 20L6.40001 4C6.40001 3.11635 7.11635 2.4 8.00001 2.4L16 2.4ZM16.4 4C16.4 3.77909 16.2209 3.6 16 3.6L14.6 3.6L14.6 3.9C14.6 4.2866 14.2866 4.6 13.9 4.6L10.1 4.6C9.71341 4.6 9.40001 4.2866 9.40001 3.9L9.40001 3.6L8.00001 3.6C7.77909 3.6 7.60001 3.77909 7.60001 4L7.60001 20C7.60001 20.2209 7.77909 20.4 8.00001 20.4L16 20.4C16.2209 20.4 16.4 20.2209 16.4 20L16.4 4Z" fill="black"/>
</svg>
