<svg width="24" height="24" viewBox="0 0 24 24" fill="none" xmlns="http://www.w3.org/2000/svg">
<path fill-rule="evenodd" clip-rule="evenodd" d="M14.1696 5.09261C14.1723 4.70396 14.4921 4.39249 14.8807 4.40016L18.5373 4.47237L18.6931 4.81832C19.8465 7.3786 19.898 10.3203 18.8573 12.9374C18.3411 14.2355 17.5563 15.4535 16.5049 16.5049C15.4534 17.5563 14.2355 18.3411 12.9374 18.8573C10.3203 19.8981 7.37857 19.8465 4.81829 18.6932L4.47234 18.5373L4.40013 14.8808C4.39246 14.4922 4.70393 14.1723 5.09257 14.1696L9.11275 14.142C9.29936 14.1407 9.4787 14.2143 9.61065 14.3463L12.8544 17.59C13.8685 17.1364 14.8206 16.4921 15.6563 15.6564C16.492 14.8207 17.1364 13.8685 17.59 12.8545L14.3462 9.61068C14.2143 9.47873 14.1407 9.29939 14.142 9.11278L14.1696 5.09261ZM18.0431 11.6105C18.6031 9.64821 18.5041 7.54645 17.7462 5.65698L15.3661 5.60998L15.3434 8.9108L18.0431 11.6105ZM11.6105 18.0431L8.91077 15.3434L5.60995 15.3661L5.65695 17.7462C7.54642 18.5041 9.64818 18.6031 11.6105 18.0431Z" fill="black"/>
</svg>
