<svg width="24" height="24" viewBox="0 0 24 24" fill="none" xmlns="http://www.w3.org/2000/svg">
<path fill-rule="evenodd" clip-rule="evenodd" d="M12 3.60002C8.4654 3.60002 5.60002 6.4654 5.60002 10C5.60002 10.6475 5.84055 11.4626 6.27839 12.3889C6.7114 13.305 7.31305 14.2797 7.97936 15.2321C9.31164 17.1364 10.867 18.9015 11.7447 19.8548C11.8862 20.0084 12.1139 20.0084 12.2553 19.8548C13.133 18.9015 14.6884 17.1364 16.0207 15.2321C16.687 14.2797 17.2887 13.305 17.7217 12.3889C18.1595 11.4626 18.4 10.6475 18.4 10C18.4 6.4654 15.5346 3.60002 12 3.60002ZM4.40002 10C4.40002 5.80266 7.80266 2.40002 12 2.40002C16.1974 2.40002 19.6 5.80266 19.6 10C19.6 10.9081 19.274 11.9129 18.8066 12.9017C18.3343 13.9008 17.6921 14.9364 17.0039 15.92C15.6272 17.8878 14.031 19.6978 13.1381 20.6676C12.5214 21.3375 11.4787 21.3375 10.8619 20.6676C9.96909 19.6978 8.37284 17.8878 6.99611 15.92C6.30791 14.9364 5.6657 13.9008 5.19348 12.9017C4.72609 11.9129 4.40002 10.9081 4.40002 10ZM12 7.60002C10.6745 7.60002 9.60002 8.67454 9.60002 10C9.60002 11.3255 10.6745 12.4 12 12.4C13.3255 12.4 14.4 11.3255 14.4 10C14.4 8.67454 13.3255 7.60002 12 7.60002ZM8.40002 10C8.40002 8.0118 10.0118 6.40002 12 6.40002C13.9882 6.40002 15.6 8.0118 15.6 10C15.6 11.9882 13.9882 13.6 12 13.6C10.0118 13.6 8.40002 11.9882 8.40002 10Z" fill="black"/>
</svg>
