<svg width="24" height="24" viewBox="0 0 24 24" fill="none" xmlns="http://www.w3.org/2000/svg">
<path fill-rule="evenodd" clip-rule="evenodd" d="M19.25 5.40002H22C22.8836 5.40002 23.6 6.11637 23.6 7.00002V21.792C23.6 22.3789 22.921 22.7052 22.4627 22.3386L19.0395 19.6H5.99999C5.11634 19.6 4.39999 18.8837 4.39999 18V15H5.59999V18C5.59999 18.2209 5.77908 18.4 5.99999 18.4H19.4605L22.4 20.7516V7.00002C22.4 6.77911 22.2209 6.60002 22 6.60002H19.25V5.40002Z" fill="black"/>
<path fill-rule="evenodd" clip-rule="evenodd" d="M19.6 3.00002C19.6 2.11637 18.8837 1.40002 18 1.40002H2.00001C1.11635 1.40002 0.400005 2.11637 0.400005 3.00002V17.792C0.400005 18.3789 1.07896 18.7052 1.53729 18.3386L4.96047 15.6H18C18.8837 15.6 19.6 14.8837 19.6 14V3.00002ZM18 2.60002C18.2209 2.60002 18.4 2.77911 18.4 3.00002V14C18.4 14.2209 18.2209 14.4 18 14.4H4.53954L1.60001 16.7516V3.00002C1.60001 2.77911 1.77909 2.60002 2.00001 2.60002H18Z" fill="black"/>
</svg>
