<svg width="24" height="24" viewBox="0 0 24 24" fill="none" xmlns="http://www.w3.org/2000/svg">
<path fill-rule="evenodd" clip-rule="evenodd" d="M19.4242 7.57576C19.5368 7.68828 19.6 7.84089 19.6 8.00002L19.6 20C19.6 20.8837 18.8836 21.6 18 21.6L5.99997 21.6C5.11632 21.6 4.39997 20.8837 4.39997 20L4.39997 4.00002C4.39997 3.11637 5.11632 2.40002 5.99998 2.40002L14 2.40002C14.1591 2.40002 14.3117 2.46324 14.4242 2.57576L19.4242 7.57576ZM18.4 20L18.4 8.60002L13.4 8.60002L13.4 3.60002L5.99998 3.60002C5.77906 3.60002 5.59998 3.77911 5.59998 4.00002L5.59997 20C5.59997 20.2209 5.77906 20.4 5.99997 20.4L18 20.4C18.2209 20.4 18.4 20.2209 18.4 20ZM14.6 4.44855L14.6 7.40002L17.5514 7.40002L14.6 4.44855ZM16 16.6L7.99997 16.6L7.99997 15.4L16 15.4L16 16.6ZM16 12.6L7.99997 12.6L7.99997 11.4L16 11.4L16 12.6Z" fill="black"/>
</svg>
